HIERARCHY
ROOT Hips
{
	OFFSET	0.00	0.00	0.00
	CHANNELS 6 Xposition Yposition Zposition Zrotation Xrotation Yrotation
	JOINT LeftUpLeg
	{
		OFFSET	 0.126116	-0.014019	-0.065224
		CHANNELS 3 Zrotation Xrotation Yrotation
		JOINT LeftLeg
		{
			OFFSET	 0.000000	 0.000000	 0.569914
			CHANNELS 3 Zrotation Xrotation Yrotation
			JOINT LeftFoot
			{
				OFFSET	 0.000000	 0.000000	 0.544423
				CHANNELS 3 Zrotation Xrotation Yrotation
				JOINT LeftToeBase
				{
					OFFSET	 0.000000	 0.000000	 0.207117
					CHANNELS 3 Zrotation Xrotation Yrotation
					End Site
					{
						OFFSET	 0.000000	 0.000000	 0.207117
					}
				}
			}
		}
	}
	JOINT RightUpLeg
	{
		OFFSET	-0.124023	-0.008373	-0.065224
		CHANNELS 3 Zrotation Xrotation Yrotation
		JOINT RightLeg
		{
			OFFSET	 0.000000	 0.000000	 0.570047
			CHANNELS 3 Zrotation Xrotation Yrotation
			JOINT RightFoot
			{
				OFFSET	 0.000000	 0.000000	 0.544354
				CHANNELS 3 Zrotation Xrotation Yrotation
				JOINT RightToeBase
				{
					OFFSET	 0.000000	 0.000000	 0.207540
					CHANNELS 3 Zrotation Xrotation Yrotation
					End Site
					{
						OFFSET	 0.000000	 0.000000	 0.207540
					}
				}
			}
		}
	}
	JOINT Spine
	{
		OFFSET	 0.000184	-0.007763	 0.117403
		CHANNELS 3 Zrotation Xrotation Yrotation
		JOINT Spine1
		{
			OFFSET	 0.000000	 0.000000	 0.137269
			CHANNELS 3 Zrotation Xrotation Yrotation
			JOINT Spine2
			{
				OFFSET	 0.000000	 0.000000	 0.156879
				CHANNELS 3 Zrotation Xrotation Yrotation
				JOINT LeftShoulder
				{
					OFFSET	 0.080501	-0.002496	 0.160144
					CHANNELS 3 Zrotation Xrotation Yrotation
					JOINT LeftArm
					{
						OFFSET	 0.000000	 0.000000	 0.164363
						CHANNELS 3 Zrotation Xrotation Yrotation
						JOINT LeftForeArm
						{
							OFFSET	 0.000000	 0.000000	 0.364576
							CHANNELS 3 Zrotation Xrotation Yrotation
							JOINT LeftHand
							{
								OFFSET	 0.000000	 0.000000	 0.360812
								CHANNELS 3 Zrotation Xrotation Yrotation
								JOINT LeftHandIndex1
								{
									OFFSET	 0.000000	 0.000000	 0.086006
									CHANNELS 3 Zrotation Xrotation Yrotation
									JOINT LeftHandIndex2
									{
										OFFSET	 0.000000	 0.000000	 0.047236
										CHANNELS 3 Zrotation Xrotation Yrotation
										JOINT LeftHandIndex3
										{
											OFFSET	-0.004284	-0.000551	 0.038166
											CHANNELS 3 Zrotation Xrotation Yrotation
											End Site
											{
												OFFSET	-0.004284	-0.000551	 0.038166
											}
										}
									}
								}
							}
						}
					}
				}
				JOINT Neck
				{
					OFFSET	 0.000000	 0.000000	 0.176489
					CHANNELS 3 Zrotation Xrotation Yrotation
					JOINT Head
					{
						OFFSET	 0.000000	-0.001747	 0.077940
						CHANNELS 3 Zrotation Xrotation Yrotation
						End Site
						{
							OFFSET	 0.000000	-0.001747	 0.077940
						}
					}
				}
				JOINT RightShoulder
				{
					OFFSET	-0.080363	 0.000306	 0.159706
					CHANNELS 3 Zrotation Xrotation Yrotation
					JOINT RightArm
					{
						OFFSET	 0.000000	 0.000000	 0.164196
						CHANNELS 3 Zrotation Xrotation Yrotation
						JOINT RightForeArm
						{
							OFFSET	 0.000000	 0.000000	 0.365611
							CHANNELS 3 Zrotation Xrotation Yrotation
							JOINT RightHand
							{
								OFFSET	 0.000000	 0.000000	 0.360648
								CHANNELS 3 Zrotation Xrotation Yrotation
								JOINT RightHandIndex1
								{
									OFFSET	 0.000000	 0.000000	 0.069977
									CHANNELS 3 Zrotation Xrotation Yrotation
									JOINT RightHandIndex2
									{
										OFFSET	 0.000000	 0.000000	 0.052305
										CHANNELS 3 Zrotation Xrotation Yrotation
										JOINT RightHandIndex3
										{
											OFFSET	 0.009002	-0.000782	 0.042196
											CHANNELS 3 Zrotation Xrotation Yrotation
											End Site
											{
												OFFSET	 0.009002	-0.000782	 0.042196
											}
										}
									}
								}
							}
						}
					}
				}
			}
		}
	}
}
MOTION
Frames:    8
Frame Time: 0.03333334
 6.789404	 7.060224	 0.435316	-86.612590	 0.648761	 3.695720	 5.057828	-3.947848	 176.471600	-11.274210	-33.703060	-5.165614	 171.914000	 86.630180	 179.408100	-2.377683	 30.140570	-0.036911	 1.776724	-12.646890	 178.918400	 3.652529	-47.602280	 5.716847	-175.275700	 82.165080	-178.778000	 2.403703	 22.122220	-0.130640	-8.147540	 1.960654	-2.020082	-12.622480	-0.182043	-0.834940	-14.729140	-1.782714	-1.208504	-91.809650	 77.627880	 179.117600	 36.842070	 69.877170	-39.911690	-7.957433	-3.991162	-19.768360	 5.921293	-2.218714	-5.334200	-3.812334	 37.924440	-2.927599	-2.450526	 36.184240	 0.754587	-1.378229	 35.397820	-2.634230	 0.558664	 6.078854	-3.212459	-3.468735	-13.597460	-2.636128	 89.765790	 79.248100	-179.649300	-36.452570	 70.300490	 39.116570	 4.207428	-7.835661	 30.811240	-11.299970	-3.195850	 9.596703	 6.437017	 35.671460	-0.771858	 2.830251	 35.756010	-7.813440	-2.350882	 35.473990	 5.254307
 6.790990	 7.058700	 0.434609	-86.286090	 0.735989	 3.718052	 5.026912	-4.178554	 176.511000	-11.100880	-34.000730	-5.126070	 171.976800	 86.331690	 179.482000	-2.376441	 30.373990	-0.042095	 1.790586	-12.767460	 178.975900	 3.741631	-47.862250	 5.830122	-175.751900	 81.790510	-178.259000	 2.403626	 22.170060	-0.129676	-8.142006	 2.121518	-2.099042	-12.624560	 0.024034	-0.826491	-14.772780	-1.541669	-1.181070	-91.809590	 77.594800	 179.150800	 36.607590	 69.830890	-39.588410	-8.054838	-4.032228	-20.304110	 5.816931	-2.210167	-5.337169	-3.812334	 37.924440	-2.927599	-2.450526	 36.184240	 0.754587	-1.378229	 35.397820	-2.634230	 0.466736	 5.919528	-3.313041	-3.543966	-13.334540	-2.500468	 89.764430	 79.279240	-179.631900	-36.280560	 70.436850	 39.033950	 4.268362	-7.759720	 30.295570	-11.362340	-3.197611	 9.595778	 6.437017	 35.671460	-0.771858	 2.830251	 35.756010	-7.813440	-2.350882	 35.473990	 5.254307
 6.799397	 7.056716	 0.433890	-86.149660	 0.815994	 3.731579	 5.003209	-4.428379	 176.565200	-10.909990	-34.356980	-5.078201	 171.984300	 86.026010	 179.636300	-2.375176	 30.608790	-0.047309	 1.883019	-13.072960	 178.974100	 4.065241	-48.540000	 6.217683	-176.156300	 81.392460	-177.666400	 2.403230	 22.390720	-0.125220	-8.102131	 2.312325	-2.083462	-12.571140	 0.195962	-0.858427	-14.738130	-1.352735	-1.153980	-91.806900	 77.644700	 179.176200	 36.595520	 69.703060	-39.697800	-8.137536	-4.044328	-20.694810	 5.696043	-2.200912	-5.340087	-3.812334	 37.924440	-2.927599	-2.450526	 36.184240	 0.754587	-1.378229	 35.397820	-2.634230	 0.438736	 5.570526	-3.521497	-3.552504	-13.038530	-2.307460	 89.764840	 79.225740	-179.620400	-36.316160	 70.508550	 39.215390	 4.224772	-7.725154	 29.851230	-11.478310	-3.201174	 9.593841	 6.437017	 35.671460	-0.771858	 2.830251	 35.756010	-7.813440	-2.350882	 35.473990	 5.254307
 6.799170	 7.052605	 0.432962	-86.263830	 0.839536	 3.600613	 5.171358	-4.679281	 176.793000	-10.794630	-34.753260	-4.945369	 172.396300	 85.696390	 179.519700	-2.374235	 30.779130	-0.051111	 2.174200	-14.047080	 179.152300	 4.458617	-50.375790	 6.968897	-176.276300	 81.135350	-177.321400	 2.400731	 23.589620	-0.100823	-8.094759	 2.784962	-1.816355	-12.628500	 0.410704	-0.852297	-14.858120	-1.108616	-1.131832	-91.799780	 77.790110	 179.247100	 36.662090	 69.469150	-40.096040	-8.204667	-4.034977	-20.964800	 5.568336	-2.191930	-5.342881	-3.812334	 37.924440	-2.927599	-2.450526	 36.184240	 0.754587	-1.378229	 35.397820	-2.634230	 0.142659	 5.591177	-3.182126	-3.816625	-13.100070	-2.866526	 89.767900	 79.073160	-179.631200	-36.467600	 70.587100	 39.700940	 4.212286	-7.702258	 29.392120	-11.628250	-3.204932	 9.591771	 6.437017	 35.671460	-0.771858	 2.830251	 35.756010	-7.813440	-2.350882	 35.473990	 5.254307
 6.799021	 7.049146	 0.432226	-86.444240	 0.855052	 3.335379	 5.496350	-4.778867	 177.087200	-10.873360	-34.942560	-4.793737	 173.721900	 85.515420	 178.482200	-2.373387	 30.929520	-0.054483	 2.270700	-15.331870	 179.502600	 4.947856	-52.598600	 7.734441	-176.151000	 81.245610	-177.354500	 2.395922	 25.374050	-0.063984	-8.052584	 3.230695	-1.430094	-12.615780	 0.519330	-0.790144	-14.844130	-1.003545	-1.117143	-91.794070	 77.931490	 179.296300	 36.769470	 69.253730	-40.596610	-8.242861	-4.014285	-21.021940	 5.492624	-2.189235	-5.344014	-3.812334	 37.924440	-2.927599	-2.450526	 36.184240	 0.754587	-1.378229	 35.397820	-2.634230	 0.030013	 5.472310	-3.169011	-3.887663	-13.168500	-3.008277	 89.771920	 78.922730	-179.677000	-36.661410	 70.625500	 40.177880	 4.233755	-7.672761	 29.109500	-11.693760	-3.207287	 9.590385	 6.437017	 35.671460	-0.771858	 2.830251	 35.756010	-7.813440	-2.350882	 35.473990	 5.254307
 6.798748	 7.044446	 0.431103	-86.805110	 0.893187	 2.822902	 6.039224	-4.753070	 177.643700	-11.154190	-34.998230	-4.578862	 175.183600	 85.383830	 177.362900	-2.371788	 31.209760	-0.060775	 2.398315	-17.742330	-179.799000	 6.076297	-56.500620	 9.301071	-175.658100	 81.998740	-177.700200	 2.380160	 29.356280	 0.021067	-7.945320	 3.732317	-0.763530	-12.528880	 0.687247	-0.620792	-14.734940	-0.898100	-1.095276	-91.787270	 78.143430	 179.330800	 36.879650	 68.952620	-41.322200	-8.279935	-3.979566	-20.944560	 5.430573	-2.190845	-5.343908	-3.812334	 37.924440	-2.927599	-2.450526	 36.184240	 0.754587	-1.378229	 35.397820	-2.634230	-0.022028	 5.356694	-3.236722	-3.898792	-13.337660	-3.130730	 89.775600	 78.704770	-179.702800	-36.986450	 70.650920	 40.859840	 4.273692	-7.640651	 28.864930	-11.740350	-3.208258	 9.589880	 6.437017	 35.671460	-0.771858	 2.830251	 35.756010	-7.813440	-2.350882	 35.473990	 5.254307
 6.798344	 7.038937	 0.429463	-87.326540	 0.920261	 2.145124	 6.636040	-4.494066	 178.456700	-11.593680	-34.783080	-4.350104	 176.266200	 85.373180	 176.564600	-2.370226	 31.475950	-0.066781	 2.721417	-21.342930	-178.893700	 8.431464	-62.141680	 12.351240	-173.652900	 84.075460	-179.473200	 2.350367	 34.205860	 0.131531	-7.800761	 4.284138	 0.056374	-12.384520	 0.837435	-0.362185	-14.559410	-0.829571	-1.073380	-91.781040	 78.349530	 179.368700	 36.939130	 68.583900	-42.153430	-8.265599	-3.943155	-20.691980	 5.430531	-2.198463	-5.341871	-3.812334	 37.924440	-2.927599	-2.450526	 36.184240	 0.754587	-1.378229	 35.397820	-2.634230	-0.028078	 5.309571	-3.354435	-3.875925	-13.677280	-3.237293	 89.778730	 78.491980	-179.728600	-37.426400	 70.651410	 41.656940	 4.305278	-7.615414	 28.707860	-11.764150	-3.208709	 9.589650	 6.437017	 35.671460	-0.771858	 2.830251	 35.756010	-7.813440	-2.350882	 35.473990	 5.254307
 6.797208	 7.033412	 0.427485	-87.908200	 0.956102	 1.495363	 7.315571	-3.996577	 179.240300	-12.089030	-34.239320	-4.062823	 177.443400	 85.441560	 175.678300	-2.367234	 31.968930	-0.077973	 3.098022	-25.633500	-178.128700	 13.737330	-68.093540	 18.284470	-171.898900	 87.379080	 179.274600	 2.362400	 32.483820	 0.091290	-7.669487	 4.725676	 0.806844	-12.203860	 1.047975	-0.052162	-14.324040	-0.782777	-1.049995	-91.777110	 78.493830	 179.356200	 36.875340	 68.162780	-42.886860	-8.244393	-3.880787	-20.287000	 5.417604	-2.207273	-5.339609	-3.812334	 37.924440	-2.927599	-2.450526	 36.184240	 0.754587	-1.378229	 35.397820	-2.634230	 0.003058	 5.303409	-3.473761	-3.810256	-14.064930	-3.313914	 89.780360	 78.350360	-179.716700	-38.077020	 70.612340	 42.693180	 4.280326	-7.604605	 28.600280	-11.795480	-3.190253	 9.598724	 6.437017	 35.671460	-0.771858	 2.830251	 35.756010	-7.813440	-2.350882	 35.473990	 5.254307
